<svg id="Capa_1" enable-background="new 0 0 505.053 505.053" height="512" viewBox="0 0 505.053 505.053" width="512" xmlns="http://www.w3.org/2000/svg"><g><path d="m501.187 246.229-44.747-34.757 38.759-41.328c2.558-2.728 3.38-6.654 2.132-10.179s-4.358-6.059-8.063-6.569l-56.13-7.727 12.901-55.171c.852-3.641-.399-7.453-3.243-9.881-2.844-2.429-6.805-3.069-10.267-1.657l-52.473 21.374-16.413-54.23c-1.083-3.579-4.072-6.255-7.749-6.936-3.678-.683-7.426.745-9.72 3.698l-34.757 44.747-41.328-38.759c-2.728-2.557-6.654-3.38-10.179-2.132s-6.059 4.358-6.569 8.063l-7.727 56.13-55.171-12.901c-3.629-.85-7.433.393-9.863 3.222s-3.083 6.775-1.695 10.237l19.496 48.624c-82.827 1.92-149.381 69.665-149.381 152.956 0 8.96.77 17.74 2.25 26.27-29.24 5.91-51.25 31.75-51.25 62.73 0 35.35 28.65 64 64 64h124c13.259 0 13.259-20 0-20h-123.257c-24.054 0-44.223-18.997-44.733-43.045-.459-21.653 14.729-39.844 35.034-44.043 1.486-.307 4.291-.855 8.267-.861 6.516-.01 11.318-6.105 9.722-12.423-2.688-10.645-4.088-21.804-4.031-33.303.348-70.296 59.484-130.617 129.761-132.287 64.764-1.539 119.349 43.241 132.969 103.537 1.534 6.789 9.363 9.887 15.216 6.12 13.796-8.879 29.615-13.696 46.052-13.696 47.158 0 85.354 38.415 84.997 85.655-.353 46.863-39.201 84.345-86.065 84.345h-113.432c-13.48 0-13.48 20 0 20h114.5c57.99 0 105-47.01 105-105 0-34.631-16.766-65.346-42.623-84.472l42.572-12.884c3.579-1.083 6.254-4.072 6.936-7.749.682-3.674-.745-7.424-3.698-9.718zm-33.809-75.657-19.133 20.401c-2.074-8.421-4.973-16.529-8.602-24.219zm-45.217-65.792-6.39 27.323c-5.951-6.202-12.509-11.815-19.578-16.746zm-72.056-34.369 8.103 26.772c-8.126-2.36-16.575-3.946-25.267-4.673zm-79.586 6.264 20.395 19.126c-8.327 2.043-16.434 4.911-24.208 8.567zm-38.549 51.588c-6.27 6.016-11.92 12.642-16.87 19.785l-10.499-26.185zm161.03 127.79c-16.21 0-31.57 3.68-45.28 10.24-17.04-53.146-62.345-93.635-118.223-103.775 20.077-31.043 55.028-50.465 92.503-50.465 60.654 0 110 49.346 110 110 0 13.489-2.379 26.548-7.083 38.939-10.065-3.207-20.789-4.939-31.917-4.939zm53.908 2.196c2.383-8.217 3.934-16.646 4.644-25.25l22.091 17.159zm-203.618 197.804c0 5.51-4.48 9.99-9.98 10-.01 0-.01 0-.02 0-5.51 0-10-4.49-10-10s4.49-10 10-10c5.52 0 10 4.49 10 10z"/></g></svg>