<?xml version="1.0" encoding="iso-8859-1"?>
<!-- Generator: Adobe Illustrator 19.0.0, SVG Export Plug-In . SVG Version: 6.00 Build 0)  -->
<svg version="1.1" id="Capa_1" xmlns="http://www.w3.org/2000/svg" xmlns:xlink="http://www.w3.org/1999/xlink" x="0px" y="0px"
	 viewBox="0 0 512 512" style="fill: #FFFFFF" xml:space="preserve">
<g>
	<g>
		<path d="M334.189,195.135L267.703,79.977c-2.442-4.23-6.817-6.756-11.702-6.756s-9.259,2.526-11.702,6.756l-66.487,115.158
			c-2.442,4.23-2.442,9.282,0,13.512c2.442,4.23,6.817,6.756,11.702,6.756h132.974c4.885,0,9.259-2.526,11.702-6.756
			C336.632,204.417,336.632,199.365,334.189,195.135z M192.091,200.404L192.091,200.404l63.91-110.695l63.91,110.695H192.091z"/>
	</g>
</g>
<g>
	<g>
		<path d="M270.783,151.353c-1.413-1.921-3.656-3.055-6.041-3.055h-7.29l5.709-18.326c1.232-3.955-0.975-8.159-4.93-9.391
			c-3.953-1.23-8.158,0.975-9.391,4.93l-8.741,28.056c-0.709,2.277-0.293,4.755,1.12,6.676c1.413,1.921,3.656,3.055,6.041,3.055
			h7.29l-5.709,18.326c-1.232,3.955,0.975,8.159,4.93,9.391c0.743,0.231,1.494,0.341,2.233,0.341c3.196,0,6.157-2.059,7.158-5.271
			l8.741-28.056C272.612,155.752,272.196,153.274,270.783,151.353z"/>
	</g>
</g>
<g>
	<g>
		<path d="M376.243,0H135.759c-21.816,0-39.565,17.749-39.565,39.564V360.21c0,21.816,17.749,39.564,39.565,39.564h56.629V504.5
			c0,4.142,3.358,7.5,7.5,7.5c4.142,0,7.5-3.358,7.5-7.5V399.774h17.064V504.5c0,4.142,3.358,7.5,7.5,7.5c4.142,0,7.5-3.358,7.5-7.5
			V399.774h33.097V504.5c0,4.142,3.358,7.5,7.5,7.5c4.142,0,7.5-3.358,7.5-7.5V399.774h17.064V504.5c0,4.142,3.358,7.5,7.5,7.5
			c4.142,0,7.5-3.358,7.5-7.5V399.774h56.629c21.816,0,39.565-17.749,39.565-39.564V39.564C415.808,17.749,398.059,0,376.243,0z
			 M376.243,384.774H135.759c-13.545,0-24.565-11.02-24.565-24.564V39.564c0-13.545,11.02-24.564,24.565-24.564h240.483
			c13.545,0,24.565,11.02,24.565,24.564V360.21h0.001C400.808,373.755,389.788,384.774,376.243,384.774z"/>
	</g>
</g>
<g>
	<g>
		<path d="M368.226,40.081H143.775c-4.142,0-7.5,3.358-7.5,7.5v248.502c0,4.142,3.358,7.5,7.5,7.5c4.142,0,7.5-3.358,7.5-7.5V55.081
			h209.451v16.55c0,4.142,3.358,7.5,7.5,7.5c4.142,0,7.5-3.358,7.5-7.5v-24.05C375.726,43.439,372.368,40.081,368.226,40.081z"/>
	</g>
</g>
<g>
	<g>
		<path d="M328.146,240.484h-144.29c-4.142,0-7.5,3.358-7.5,7.5c0,4.142,3.358,7.5,7.5,7.5h144.29c4.142,0,7.5-3.358,7.5-7.5
			C335.646,243.842,332.288,240.484,328.146,240.484z"/>
	</g>
</g>
<g>
	<g>
		<path d="M328.146,272.548h-144.29c-4.142,0-7.5,3.358-7.5,7.5c0,4.142,3.358,7.5,7.5,7.5h144.29c4.142,0,7.5-3.358,7.5-7.5
			C335.646,275.906,332.288,272.548,328.146,272.548z"/>
	</g>
</g>
<g>
	<g>
		<path d="M328.146,304.613h-144.29c-4.142,0-7.5,3.358-7.5,7.5c0,4.142,3.358,7.5,7.5,7.5h144.29c4.142,0,7.5-3.358,7.5-7.5
			C335.646,307.971,332.288,304.613,328.146,304.613z"/>
	</g>
</g>
<g>
	<g>
		<path d="M375.727,177.587v-73.891c0-4.142-3.358-7.5-7.5-7.5c-4.142,0-7.5,3.358-7.5,7.5v73.891
			c-9.308,3.139-16.032,11.946-16.032,22.3s6.724,19.16,16.032,22.3v122.507H151.275v-16.546c0-4.142-3.358-7.5-7.5-7.5
			c-4.142,0-7.5,3.358-7.5,7.5v24.046c0,4.142,3.358,7.5,7.5,7.5h224.451c4.142,0,7.5-3.358,7.5-7.5V222.187
			c9.309-3.139,16.033-11.946,16.033-22.3C391.759,189.533,385.035,180.727,375.727,177.587z M368.248,208.418
			c-0.007,0-0.014-0.001-0.022-0.001s-0.014,0.001-0.022,0.001c-4.695-0.012-8.51-3.834-8.51-8.531c0-4.693,3.81-8.512,8.499-8.531
			c0.011,0,0.022,0.002,0.034,0.002c0.012,0,0.022-0.002,0.034-0.002c4.689,0.019,8.499,3.837,8.499,8.531
			C376.759,204.584,372.943,208.406,368.248,208.418z"/>
	</g>
</g>
<g>
</g>
<g>
</g>
<g>
</g>
<g>
</g>
<g>
</g>
<g>
</g>
<g>
</g>
<g>
</g>
<g>
</g>
<g>
</g>
<g>
</g>
<g>
</g>
<g>
</g>
<g>
</g>
<g>
</g>
</svg>
